PathFileType	4	(X/Y/Z)	S01_Demo_SingleTrial_0-100.trc
DataRate	CameraRate	NumFrames	NumMarkers	Units	OrigDataRate	OrigDataStartFrame	OrigNumFrames
60	60	7	21	m	60	25	100
Frame#	Time	RHip			RKnee			RAnkle			RBigToe			RSmallToe			RHeel			LHip			LKnee			LAnkle			LBigToe			LSmallToe			LHeel			Neck			Head			Nose			RShoulder			RElbow			RWrist			LShoulder			LElbow			LWrist		
		X1	Y1	Z1	X2	Y2	Z2	X3	Y3	Z3	X4	Y4	Z4	X5	Y5	Z5	X6	Y6	Z6	X7	Y7	Z7	X8	Y8	Z8	X9	Y9	Z9	X10	Y10	Z10	X11	Y11	Z11	X12	Y12	Z12	X13	Y13	Z13	X14	Y14	Z14	X15	Y15	Z15	X16	Y16	Z16	X17	Y17	Z17	X18	Y18	Z18	X19	Y19	Z19	X20	Y20	Z20	X21	Y21	Z21
26	0.43333333333333335	-0.1609564598959975	0.9505484158352099	-1.1957637951459121	-0.3828636880754452	0.6364958217551618	-1.0199540298165737	-0.2935429911080271	0.20821182901809662	-1.305383488617888	-0.32932464604538797	0.10259194918771325	-1.1709688458345713	-0.3631047925472336	0.11247511496941982	-1.2219787290903334	-0.26870679273863657	0.1980395462857996	-1.3571135868496087	0.010991359293645187	0.8784005180604598	-1.2234643690073064	-0.05718386434291665	0.5213253164423093	-0.970719440006139	-0.014890207103298365	0.1451777244973887	-1.155701824278488	-0.006941022831630675	0.08462723699223816	-0.9975694174218049	0.03258034649235037	0.08112771419868095	-1.0394471637698282	-0.0032261956483826356	0.11584814017418622	-1.2134257110883606	0.1786687505330803	1.402659919010776	-1.1468226777262012	0.26733937831420096	1.6087274518854282	-1.0113384894306996	0.21310896096359283	1.47636851250499	-0.9529073807495128	0.02257441205793368	1.4318617645300562	-1.1847518955581067	-0.21194570622344078	1.3760234736070338	-1.2305595041828246	-0.35849008601394394	1.4647706982203799	-1.0853408712813255	0.3046433261602143	1.2751739679449212	-1.1535138782490948	0.3479761576139952	0.9904487084640236	-1.1460965918431714	0.34003151972571416	0.7334939407548183	-1.0884261479191737
27	0.45	-0.16056094178297967	0.9513973117449929	-1.1937028183546838	-0.37485653597990876	0.6169714735574899	-1.0799123854736872	-0.332651426558324	0.20507821511051055	-1.286384451326767	-0.4078793747030531	0.12376377587960333	-1.1382383134317582	-0.40327440651554486	0.12220189872545309	-1.1905089196538987	-0.29953948593152835	0.19368230410857137	-1.3264903856845323	0.008015578926573882	0.8799231117901573	-1.2099254400793105	-0.058226918637789345	0.5258619813525924	-0.9442515799729271	-0.012838373684048544	0.1482841221626776	-1.1550994262522083	-0.007498456407218651	0.08037376608387231	-1.0004669901815073	0.029241796257184	0.08059026581942713	-1.0377136523348844	-0.007172240073419224	0.11759298913230434	-1.2130998004850653	0.18773318474397943	1.3955529228245518	-1.1408820837901161	0.2893712277813316	1.6128353313442307	-0.956486336925214	0.22415801273649577	1.4767807718435473	-0.9511439521318784	0.028310165581980542	1.4288408787161522	-1.1587582261261191	-0.20740990171188073	1.3869964336061822	-1.22510689136652	-0.35892629438390805	1.4741942077528243	-1.0740222846507244	0.30819494845142076	1.2683597033283132	-1.1516254711154579	0.3440135192724286	0.9830185762100135	-1.1388760492087988	0.3231105995897806	0.734808371883678	-1.1048110181589559
28	0.4666666666666667	-0.1589174197301204	0.9507826718008413	-1.1851948602813578	-0.3843808069111482	0.6170553280685952	-1.0726131619582207	-0.3673173876507288	0.21184581510612524	-1.2634180673868243	-0.4346267777915217	0.12511318167588062	-1.1187474525537628	-0.4435965071620836	0.11827351549681264	-1.1755248283862516	-0.3488533599749414	0.2033293060928382	-1.299143528572468	0.009062033218355482	0.8780066676501929	-1.1986992325219858	-0.05820238909413394	0.5285850600564296	-0.9364749838456965	-0.014207947431426879	0.1445117414150121	-1.1529054221680504	-0.012608106008793881	0.0786437447593376	-0.9959419568575224	0.0226994734607702	0.0809321211729476	-1.0332551644468844	-0.009484438456061398	0.109233265900748	-1.2070948994630522	0.19764007909148676	1.386269502509859	-1.134936772966009	0.29966067166917193	1.6039672472805853	-0.9497082401372788	0.22476425711952533	1.4671630382002516	-0.9479339044457297	0.03687385300959731	1.4256540228468182	-1.1618131283891482	-0.2069498293300791	1.3931463854841368	-1.22320091604966	-0.34402561567278944	1.4908654846890168	-1.0306657763619296	0.3107047412845452	1.2631681190939648	-1.1481672576179838	0.33368287562385046	0.9803723093324516	-1.165703907517619	0.3406992598390587	0.7328819531330225	-1.0352705115643197
29	0.48333333333333334	-0.17168751271317453	0.9503180395787069	-1.1746715620880663	-0.398617245051067	0.6254002910760204	-1.0719897022353544	-0.4249323608783025	0.23660309677965552	-1.2327159654587851	-0.45077748203261525	0.11587537669623463	-1.0937179884812138	-0.47504140710777226	0.131703737085731	-1.1382038733055393	-0.39686020941822137	0.20278587283724603	-1.2836896909634945	0.00771683746982359	0.8777035362633407	-1.1840753187360744	-0.05836171534182392	0.5227671203506508	-0.9297518223530733	-0.013468277372213577	0.14609164219121076	-1.1560977579622598	-0.010901520373111066	0.07946242214807199	-0.9979663182344032	0.023409604209250156	0.08046892623998289	-1.0327683419000164	-0.0018840076827662646	0.11275456283624656	-1.212187039888132	0.1976805602682047	1.3818290742353292	-1.123050312649528	0.3116933226940801	1.6025864858371028	-0.9445089029461363	0.2265831500660892	1.469261643423263	-0.9358836031156094	0.0438184570879183	1.4277702145818418	-1.1438701772055975	-0.20333223394470185	1.4005296700036296	-1.226725481237641	-0.33624161052853146	1.49796630801799	-1.088967247956886	0.3096143563148778	1.257022481390592	-1.1393159431130315	0.3448952815398281	0.9708449932290634	-1.122794557658779	0.33333616457751003	0.7107456502464582	-1.0640120669639048
30	0.5	-0.170223329481959	0.9529446009391216	-1.1582508216677914	-0.4096207409190579	0.6263845668437726	-1.0584701706002555	-0.45050722554515404	0.24270946715411323	-1.2198851644766227	-0.5204859710115473	0.16452142250710597	-1.0543575546943795	-0.5500401976484629	0.1679084472800732	-1.1245566913110754	-0.42897240581995605	0.2046217607773698	-1.2600365190712561	0.007566348599208868	0.8801697520885121	-1.1811262505219553	-0.06247954176329021	0.5263923060862927	-0.9310219026745263	-0.008571924375176678	0.14098557407668139	-1.1513583190063466	-0.008328090869065061	0.07836574312308375	-0.9937208318796249	0.018913650411470143	0.08109055710819772	-1.0285605065539944	0.00010784031526045756	0.10783009818993952	-1.2082112470310595	0.20583061487780197	1.3750257402127126	-1.119999986049981	0.31686172353748965	1.5928375805927626	-0.9300191125581811	0.23584922150100895	1.4624340617888274	-0.9422057626633971	0.05385221155347275	1.4205664127345174	-1.1324617317483225	-0.1893746370171996	1.41273865090961	-1.205439220331036	-0.3301934065419043	1.505158161134784	-1.085669111649861	0.31644697492071444	1.2476087735316908	-1.1313352495163298	0.3410460975761985	0.9622610366880384	-1.1133034317973842	0.3340593225858436	0.70658355896916	-1.0542496826645713
31	0.5166666666666667	-0.17192330316235713	0.9563373268311635	-1.1513406170076446	-0.4289966881261841	0.626366990264539	-1.0438737838403842	-0.4939787419601108	0.24775984131919215	-1.1954273617189408	-0.5473549181134972	0.18136621672831765	-1.0372942259064593	-0.5529231255280863	0.1504109875916579	-1.1186776603993602	-0.47878311050536765	0.21603284294255398	-1.2360644682268023	0.004998133639566546	0.8767620040989149	-1.1639454987862303	-0.06889990525372144	0.5178365273538191	-0.9278655604557632	-0.012122398345669605	0.13957075661294918	-1.1542816776562288	-0.011228708437945	0.0772318987789878	-0.9920925716164707	0.022966424478638073	0.07291106410365929	-1.030795440793508	-0.005833498127569674	0.10965254930987751	-1.2067234940082632	0.20523294064203404	1.3666135929333851	-1.1073922396948166	0.32716736531573837	1.5840365621777575	-0.9232385490688885	0.24704815724437312	1.448654590567105	-0.9334500888533955	0.0576549344278569	1.4215327838577092	-1.1233076326883853	-0.1892233814809553	1.4163026119824147	-1.197912568427292	-0.316802695484284	1.527161226274852	-1.0334216836141619	0.31678682086934895	1.2397332617807193	-1.129669408921006	0.3459033160352562	0.9570333383661219	-1.116933641953238	0.3320605151144198	0.7053423658453535	-1.04668706497307
32	0.5333333333333333	-0.17805367108998016	0.9574167460495933	-1.1374783980534795	-0.4369613766332205	0.6437165814564645	-1.0341516497481773	-0.5195701964761192	0.2552932849693224	-1.1845040946234546	-0.5718102628471617	0.17745142250486232	-1.0480147302035194	-0.582484666196788	0.17344130659672735	-1.1097905096275902	-0.5124557508097476	0.23051866023823672	-1.232587242826257	0.020625820170903184	0.8663839763730439	-1.1275508452334662	-0.06278619084388166	0.5207137763290983	-0.9236501133258143	-0.014468841635990742	0.14256411767281812	-1.1541470635046027	-0.017225204368867687	0.07957386019471303	-0.9957442577880413	0.02036825624577834	0.07667666722637399	-1.0356433557308407	-0.006478039372629688	0.10474458842142327	-1.2055402285590477	0.2109449344464743	1.362804955739652	-1.1028544529718494	0.3297598741054975	1.5775659215574387	-0.9236641635322462	0.2488772012968319	1.4420931837459456	-0.9138016635205563	0.058384726722872635	1.4184273645844168	-1.1194395783064657	-0.18858976839331065	1.4259044881569543	-1.1909198998952104	-0.31468818082306066	1.5309191634944224	-1.0406144381286826	0.32317893334888104	1.232313642821848	-1.1332077487394363	0.3407528853627981	0.9466806951971796	-1.1057306099086457	0.3321746452599716	0.6994618585046133	-1.0286618443206816
